<svg xmlns:dc="http://purl.org/dc/elements/1.1/" xmlns:cc="http://creativecommons.org/ns#"
     xmlns:rdf="http://www.w3.org/1999/02/22-rdf-syntax-ns#" xmlns:svg="http://www.w3.org/2000/svg"
     xmlns="http://www.w3.org/2000/svg" xmlns:sodipodi="http://sodipodi.sourceforge.net/DTD/sodipodi-0.dtd"
     xmlns:inkscape="http://www.inkscape.org/namespaces/inkscape" version="1.1" id="Layer_1" x="0px" y="0px"
     viewBox="0 0 80 34" xml:space="preserve" inkscape:version="0.91 r13725" sodipodi:docname="yii_logo_light.svg"><metadata id="metadata4156"><rdf:RDF><cc:Work rdf:about=""><dc:format>image/svg+xml</dc:format><dc:type
        rdf:resource="http://purl.org/dc/dcmitype/StillImage"/></cc:Work></rdf:RDF></metadata>
    <defs id="defs4154"><clipPath id="clipPath4181" clipPathUnits="userSpaceOnUse"><path inkscape:connector-curvature="0" id="path4183" d="M 0,792 612,792 612,0 0,0 0,792 Z"/></clipPath></defs>
    <sodipodi:namedview pagecolor="#ffffff" bordercolor="#666666" borderopacity="1" objecttolerance="10"
                        gridtolerance="10" guidetolerance="10" inkscape:pageopacity="0" inkscape:pageshadow="2"
                        inkscape:window-width="1920" inkscape:window-height="1137" id="namedview4152" showgrid="false"
                        inkscape:zoom="8" inkscape:cx="36.981102" inkscape:cy="9.663581" inkscape:window-x="1912"
                        inkscape:window-y="-8" inkscape:window-maximized="1" inkscape:current-layer="Layer_1"/>
    <g id="XMLID_22_"><path id="XMLID_26_" fill="#BFD1DA" d="M61.5,24.2V9.3c0-0.3-0.2-0.5-0.5-0.5h-2.2c-0.3,0-0.5,0.2-0.5,0.5v14.9   c0,0.3,0.2,0.5,0.5,0.5H61C61.3,24.6,61.5,24.4,61.5,24.2L61.5,24.2z M50.1,24.6V8.9c-1.2,0-3.1,0.8-3.1,2.5v10.7   c-0.7,0.1-1.7,0.2-2.3,0.2c-2,0-2.5-1.4-2.5-3.3v-7.7c-0.1-1.9-2.2-2.4-3.1-2.4v10c0,3.6,1.8,5.9,5.6,5.9c0.6,0,1.8-0.2,2.3-0.3   v0.2c0.5,3.1-3.3,1.9-5.3,1.7c-1.5,0-2.5,1.2-2.8,2.6c0.9,0.3,3.7,0.6,5.7,0.8C48.2,29.9,50.1,27.9,50.1,24.6L50.1,24.6z    M55.8,24.2V9.3c0-0.3-0.2-0.5-0.5-0.5h-2.2c-0.3,0-0.5,0.2-0.5,0.5v14.9c0,0.3,0.2,0.5,0.5,0.5h2.2C55.6,24.6,55.8,24.4,55.8,24.2   L55.8,24.2z M54.2,4.6c0.9,0,1.6,0.7,1.6,1.6c0,0.9-0.7,1.6-1.6,1.6c-0.9,0-1.6-0.7-1.6-1.6C52.6,5.4,53.3,4.6,54.2,4.6L54.2,4.6z    M60,4.6c0.9,0,1.6,0.7,1.6,1.6c0,0.9-0.7,1.6-1.6,1.6c-0.9,0-1.6-0.7-1.6-1.6C58.4,5.4,59.1,4.6,60,4.6L60,4.6z" style="fill:#1d82c5;fill-opacity:1"/></g>
    <g transform="matrix(0.50580295,0,0,-0.50580295,-72.888583,177.03598)" inkscape:label="yii_logo_4 cveta" id="g4175"><g id="g4177"><g clip-path="url(#clipPath4181)" id="g4179"><g transform="translate(183.9946,331.1367)" id="g4185"><path inkscape:connector-curvature="0" id="path4187" style="fill:#7cc734;fill-opacity:1;fill-rule:evenodd;stroke:none" d="M 0,0 C -3.088,8.913 5.938,18.468 13.363,18.753 17.812,16.432 21.632,10.337 21.441,2.066 20.858,-8.124 13.648,-16.906 5.802,-24.997 5.364,-15.131 3.27,-8.842 0,0"/></g><g
            transform="translate(166.4893,282.874)" id="g4189"><path inkscape:connector-curvature="0" id="path4191" style="fill:#3e7fca;fill-opacity:1;fill-rule:evenodd;stroke:none" d="m 0,0 c -1.242,9.949 2.797,18.436 6.806,23.611 1.905,2.43 3.369,4.647 4.484,6.689 2.106,-0.912 7.767,-3.882 10.886,-8.704 C 21.723,14.601 16.554,1.871 0,0"/></g><g
            transform="translate(160.2344,320.6611)" id="g4193"><path inkscape:connector-curvature="0" id="path4195" style="fill:#eb6e2e;fill-opacity:1;fill-rule:evenodd;stroke:none" d="M 0,0 C -13.175,3.685 -16.425,15.259 -15.837,23.043 -3.043,28.229 10.726,22.917 18.676,11.845 24.25,4.085 27.74,-5.864 28.448,-14.547 24.624,-9.5 19.794,-6.576 13.642,-4.286 9.434,-2.721 5.547,-1.684 0,0"/></g><g
            transform="translate(459.5723,301.9727)" id="g4197"/><g transform="translate(262.3789,302.3389)"
                                                                    id="g4201"/><g
            transform="translate(259.4429,340.7461)" id="g4205"/><g transform="translate(240.5635,301.4668)"
                                                                    id="g4209"/></g></g></g></svg>
